# xmcd CD database file
#
# Track frame offsets:
#	150
#	8034
#	20666
#	29820
#	36345
#	48734
#	59683
#	67562
#	73678
#	79542
#	88235
#	100767
#	107978
#	121567
#	129180
#	135332
#	143141
#	149456
#	159688
#	170204
#	178069
#	185081
#	194442
#	204998
#	213876
#	227966
#	238177
#	246379
#	252905
#	262878
#	274465
#	279375
#	293728
#
# Disc length: 4181 seconds
#
# Revision: 3
# Processed by: cddbd v1.5.2PL0 Copyright (c) Steve Scherf et al.
# Submitted via: CDex 1.70beta2
#
DISCID=f8105321
DTITLE=ソロ・ギターのしらべ　4 - Guitar
DYEAR=2004
DGENRE=New Age
TTITLE0=Before You Accuse Me
TTITLE1=Over The Rainbow
TTITLE2=Hey Joe
TTITLE3=Love In Vain
TTITLE4=Parisienne Walkways
TTITLE5=Desperado
TTITLE6=We are the Champions
TTITLE7=Twist and Shout
TTITLE8=Rock N Roll All Nite
TTITLE9=Africa
TTITLE10=I don't want to miss a thing
TTITLE11=Smoke on the water
TTITLE12=Bridge over troubled water
TTITLE13=Scarborough Fair
TTITLE14=Puff
TTITLE15=You've got a friend
TTITLE16=Woman
TTITLE17=Hard to say I'm sorry
TTITLE18=Without you
TTITLE19=Lovin' you
TTITLE20=I've never been to me
TTITLE21=My heart will go on
TTITLE22=SUMMER
TTITLE23=I need to be in love
TTITLE24=Dance with me
TTITLE25=If
TTITLE26=To be with you
TTITLE27=銀河鉄道999
TTITLE28=世界に一つだけの花
TTITLE29=地上の星
TTITLE30=暴れん坊将軍
TTITLE31=いとしのレイラ
TTITLE32=天国への階段
EXTD=YEAR: 2004
EXTT0=
EXTT1=
EXTT2=
EXTT3=
EXTT4=
EXTT5=
EXTT6=
EXTT7=
EXTT8=
EXTT9=
EXTT10=
EXTT11=
EXTT12=
EXTT13=
EXTT14=
EXTT15=
EXTT16=
EXTT17=
EXTT18=
EXTT19=
EXTT20=
EXTT21=
EXTT22=
EXTT23=
EXTT24=
EXTT25=
EXTT26=
EXTT27=
EXTT28=
EXTT29=
EXTT30=
EXTT31=
EXTT32=
PLAYORDER=
